<?xml version="1.0" ?>
<!DOCTYPE svg  PUBLIC '-//W3C//DTD SVG 1.1//EN'  'http://www.w3.org/Graphics/SVG/1.1/DTD/svg11.dtd'>
<svg xmlns="http://www.w3.org/2000/svg" xmlns:xlink="http://www.w3.org/1999/xlink" id="Layer_1" width="48px" height="48px" enable-background="new 0 0 48 48" version="1.1" viewBox="0 0 48 48" xml:space="preserve">
    <g id="Layer_3">
        <g>
            <path fill="#241F20" stroke="#DDDDDD" d="M22.507,37.18c-1.821,0-3.207,0.455-4.159,1.365c-0.953,0.91-1.431,2.255-1.431,4.031    c0,1.716,0.488,3.046,1.462,3.986c0.974,0.943,2.349,1.414,4.128,1.414c1.736,0,3.091-0.482,4.065-1.444    c0.974-0.964,1.46-2.282,1.46-3.956c0-1.733-0.482-3.067-1.443-4C25.624,37.646,24.264,37.18,22.507,37.18z"/>
            <path fill="#241F20" stroke="#DDDDDD" d="M34.781,3.167c-2.572-2.096-6.04-3.144-10.4-3.144c-5.292,0-10.301,1.323-15.021,3.97l3.461,6.954    c4.064-2.074,7.685-3.112,10.86-3.112c1.822,0,3.24,0.36,4.254,1.08c1.018,0.72,1.524,1.768,1.524,3.144    c0,1.228-0.354,2.339-1.063,3.334s-2.174,2.286-4.397,3.875c-2.307,1.693-3.896,3.292-4.762,4.795    c-0.87,1.503-1.303,3.272-1.303,5.305v2.349h8.416v-1.904c0-1.271,0.271-2.297,0.811-3.082c0.539-0.781,1.824-1.926,3.857-3.429    c2.963-2.117,4.975-4.022,6.033-5.717c1.059-1.694,1.59-3.706,1.59-6.034C38.641,8.059,37.354,5.263,34.781,3.167z"/>
        </g>
    </g>
</svg>
