<?xml version="1.0" encoding="UTF-8" standalone="no"?>
<svg
   xmlns:dc="http://purl.org/dc/elements/1.1/"
   xmlns:cc="http://creativecommons.org/ns#"
   xmlns:rdf="http://www.w3.org/1999/02/22-rdf-syntax-ns#"
   xmlns:svg="http://www.w3.org/2000/svg"
   xmlns="http://www.w3.org/2000/svg"
   xmlns:sodipodi="http://sodipodi.sourceforge.net/DTD/sodipodi-0.dtd"
   xmlns:inkscape="http://www.inkscape.org/namespaces/inkscape"
   enable-background="new 0 0 512 512"
   id="Layer_1"
   version="1.1"
   viewBox="0 0 512 512"
   xml:space="preserve"
   sodipodi:docname="grass.svg"
   inkscape:version="0.92.2 2405546, 2018-03-11"><metadata
     id="metadata3789"><rdf:RDF><cc:Work
         rdf:about=""><dc:format>image/svg+xml</dc:format><dc:type
           rdf:resource="http://purl.org/dc/dcmitype/StillImage" /><dc:title></dc:title></cc:Work></rdf:RDF></metadata><defs
     id="defs3787" /><sodipodi:namedview
     pagecolor="#ffffff"
     bordercolor="#666666"
     borderopacity="1"
     objecttolerance="10"
     gridtolerance="10"
     guidetolerance="10"
     inkscape:pageopacity="0"
     inkscape:pageshadow="2"
     inkscape:window-width="1920"
     inkscape:window-height="983"
     id="namedview3785"
     showgrid="false"
     inkscape:zoom="1.5605469"
     inkscape:cx="256"
     inkscape:cy="256"
     inkscape:window-x="1280"
     inkscape:window-y="27"
     inkscape:window-maximized="1"
     inkscape:current-layer="Layer_1" /><g
     id="g3782"
     transform="matrix(1.6505721,0,0,1.6505721,-166.4855,-166.51849)"><path
       d="m 345.6,246.2 c -10.1,-1.1 -21.2,0.6 -32.2,4.7 1.4,-1.3 33.6,-50.3 31.3,-71.7 -19.4,-2.1 -41.5,5.9 -60.9,22.6 3.6,-9.7 5.7,-20.3 5.7,-31.6 0,-29 -13.4,-54.3 -33.4,-67.9 -20,13.6 -33.4,38.9 -33.4,67.9 0,10.7 1.8,20.9 5.1,30.2 -19.2,-16 -41,-23.4 -60.3,-21.1 -2.6,21.7 28.1,69.7 28.8,70.4 -10.2,-3.3 -20.4,-4.5 -29.8,-3.4 -2.6,21.7 29,69.7 29.8,70.4 -10.2,-3.3 -20.4,-4.5 -29.8,-3.4 -2.6,21.7 7.1,47.8 27.6,68.3 20.5,20.5 46.6,30.2 68.3,27.6 0,0 0,0 0,0 18.4,-1.9 38.4,-11.6 54.9,-28.1 20.5,-20.5 30.4,-46.4 28.1,-67.8 -10.1,-1.1 -21.2,0.6 -32.2,4.7 1.5,-1.3 34.6,-50.3 32.4,-71.8 z M 256.2,238 c 0.1,-0.1 0.2,-0.1 0.3,-0.2 -0.1,0.1 -0.1,0.3 -0.2,0.4 0,-0.1 0,-0.1 -0.1,-0.2 z"
       id="path3771"
       inkscape:connector-curvature="0"
       style="fill:#5fff85" /><path
       d="m 345.6,246.2 c -10.1,-1.1 -21.2,0.6 -32.2,4.7 1.4,-1.3 33.6,-50.3 31.3,-71.7 -19.4,-2.1 -41.5,5.9 -60.9,22.6 3.6,-9.7 5.7,-20.3 5.7,-31.6 0,-29 -13.4,-54.3 -33.4,-67.9 -20,13.6 -33.4,38.9 -33.4,67.9 0,10.7 1.8,20.9 5.1,30.2 -19.2,-16 -41,-23.4 -60.3,-21.1 -2.6,21.7 28.1,69.7 28.8,70.4 -10.2,-3.3 -20.4,-4.5 -29.8,-3.4 -2.6,21.7 29,69.7 29.8,70.4 -10.2,-3.3 -20.4,-4.5 -29.8,-3.4 -2.6,21.7 7.1,47.8 27.6,68.3 20.5,20.5 46.6,30.2 68.3,27.6 0,0 0,0 0,0 18.4,-1.9 38.4,-11.6 54.9,-28.1 20.5,-20.5 30.4,-46.4 28.1,-67.8 -10.1,-1.1 -21.2,0.6 -32.2,4.7 1.5,-1.3 34.6,-50.3 32.4,-71.8 z M 256.2,238 c 0.1,-0.1 0.2,-0.1 0.3,-0.2 -0.1,0.1 -0.1,0.3 -0.2,0.4 0,-0.1 0,-0.1 -0.1,-0.2 z"
       id="path3773"
       inkscape:connector-curvature="0"
       style="fill:#00a102" /><linearGradient
       gradientUnits="userSpaceOnUse"
       id="SVGID_1_"
       x1="256"
       x2="256"
       y1="403.5325"
       y2="109.9136"><stop
         offset="0"
         style="stop-color:#FFFFFF;stop-opacity:0"
         id="stop3775" /><stop
         offset="1"
         style="stop-color:#FFFFFF;stop-opacity:0.6"
         id="stop3777" /></linearGradient><path
       d="m 270.1,221 8,-21.3 c 3.5,-9.3 5.3,-19.2 5.3,-29.4 0,-24.3 -10.4,-47 -27.4,-60.4 -17,13.3 -27.4,36.1 -27.4,60.4 0,9.7 1.6,19.2 4.8,28.1 l 7.4,20.9 -17,-14.2 c -15.6,-13 -33.3,-20.1 -49.5,-20.1 -0.3,0 -0.6,0 -0.8,0 2,19 22.7,54 27.3,60.7 l 19.2,18.2 -25.7,-8.4 c -7.4,-2.4 -14.8,-3.6 -21.8,-3.5 0.7,6 3.6,16.4 12.4,33.5 7,13.7 14.4,25.1 15.9,27.2 l 19.2,18.2 -25.6,-8.4 c -7.5,-2.5 -15.1,-3.7 -22.2,-3.5 -0.5,19.5 9.3,41.4 26.3,58.4 17.6,17.6 40.5,27.4 60.4,26.2 l 3,-0.3 c 17.7,-1.9 36.4,-11.5 51.3,-26.4 16.9,-16.9 26.8,-38.6 26.7,-57.8 -7.8,-0.1 -16.1,1.5 -24.4,4.7 l -30,11.4 L 309,314 c 4.1,-5.2 27.7,-42.2 30.4,-61.7 -7.6,0 -15.8,1.6 -23.9,4.7 l -30.1,11 23.5,-21.2 c 4,-5.3 27,-42.1 29.5,-61.8 -16.6,0 -34.8,7.6 -50.8,21.4 l -17.1,14.7"
       id="path3780"
       inkscape:connector-curvature="0"
       style="fill:url(#SVGID_1_)" /></g></svg>