<?xml version="1.0" ?><!DOCTYPE svg  PUBLIC '-//W3C//DTD SVG 1.1//EN'  'http://www.w3.org/Graphics/SVG/1.1/DTD/svg11.dtd'><svg height="135px" id="Layer_1" style="enable-background:new 0 0 135 135;" version="1.1" viewBox="0 0 135 135" width="135px" xml:space="preserve" xmlns="http://www.w3.org/2000/svg" xmlns:xlink="http://www.w3.org/1999/xlink"><style type="text/css">
<![CDATA[
	.st0{fill:#465652;}
	.st1{fill:#AAB9BA;}
	.st2{fill:#47C67B;}
	.st3{fill:#AAC8D1;}
	.st4{fill:none;stroke:#E83834;stroke-width:6;stroke-linecap:round;stroke-linejoin:round;stroke-miterlimit:10;}
	.st5{fill:#7BC67B;}
	.st6{fill:#7BC7FF;}
	.st7{fill:#7C34C1;}
	.st8{fill:#7C8D96;}
	.st9{fill:#AD2707;}
	.st10{fill:#ADB8BC;}
	.st11{fill:#107510;}
	.st12{fill:#7FE5D8;}
	.st13{fill:#AF4AD1;}
	.st14{fill:#E02B7E;}
	.st15{fill:#E04038;}
	.st16{fill:#AFD7DD;}
	.st17{fill:#E0A010;}
	.st18{fill:#E0D5A4;}
	.st19{fill:#12B2B2;}
	.st20{fill:#12D66B;}
	.st21{fill:#E1A9FF;}
	.st22{fill:#1362A8;}
	.st23{fill:#E2378D;}
	.st24{fill:#E29C37;}
	.st25{fill:#E2B90E;}
	.st26{fill:#E2BF91;}
	.st27{fill:#E2CBAA;}
	.st28{fill:#14A594;}
	.st29{fill:#E4E9ED;}
	.st30{fill:#4A5D60;}
	.st31{fill:#E5B076;}
	.st32{fill:#E5B1C4;}
	.st33{fill:#E5E4C3;}
	.st34{fill:#4B6466;}
	.st35{fill:#E6FF2E;}
	.st36{fill:#18AA67;}
	.st37{fill:#E86207;}
	.st38{fill:#E8A113;}
	.st39{fill:#E8B5A6;}
	.st40{fill:#E8E8ED;}
	.st41{fill:#4E5154;}
	.st42{fill:#E9F1F4;}
	.st43{fill:#4F4B48;}
	.st44{fill:#4F74E8;}
	.st45{fill:#808E93;}
	.st46{fill:#80949B;}
	.st47{fill:#80EDAC;}
	.st48{fill:#B122E0;}
	.st49{fill:#B2C4CC;}
	.st50{fill:#83D839;}
	.st51{fill:#B3C6C6;}
	.st52{fill:none;stroke:#33363A;stroke-width:3;stroke-linecap:round;stroke-linejoin:round;stroke-miterlimit:10;}
	.st53{fill:#1A8E1C;}
	.st54{fill:#1A93D6;}
	.st55{fill:#B50B0B;}
	.st56{fill:#1AD88F;}
	.st57{fill:#B5DAF4;}
	.st58{fill:#EA7B1F;}
	.st59{fill:#EA81BD;}
	.st60{fill:#87B8D6;}
	.st61{fill:#87C3F4;}
	.st62{fill:#EAC79D;}
	.st63{fill:#EADF11;}
	.st64{fill:#EAE4C5;}
	.st65{fill:#B78094;}
	.st66{fill:#8844D8;}
	.st67{fill:#EBF4F7;}
	.st68{fill:#893015;}
	.st69{fill:#89410B;}
	.st70{fill:#899BA3;}
	.st71{fill:#EDE3B9;}
	.st72{enable-background:new    ;}
	.st73{fill:#50FF9F;}
	.st74{fill:#EEDCF4;}
	.st75{fill:#EFA37D;}
	.st76{fill:#EFA3CC;}
	.st77{fill:#EFC99A;}
	.st78{fill:#54AF79;}
	.st79{fill:#BA503A;}
	.st80{fill:#BA8663;}
	.st81{fill:#8B4FE0;}
	.st82{fill:#58ED9B;}
	.st83{fill:#BC7DFF;}
	.st84{fill:#8D9AA3;}
	.st85{fill:#BCCAD3;}
	.st86{fill:#8DE4FF;}
	.st87{fill:#20B518;}
	.st88{fill:#BF44F2;}
	.st89{fill:#21CEA1;}
	.st90{fill:#BFDAE0;}
	.st91{fill:#F0FBFC;}
	.st92{fill:#F2D9A7;}
	.st93{fill:#F2EAC9;}
	.st94{fill:#24D1AF;}
	.st95{fill:#25931C;}
	.st96{fill:#F4C4B3;}
	.st97{fill:#F4D3A2;}
	.st98{fill:#F4D647;}
	.st99{fill:#F4D7B8;}
	.st100{fill:#F4EC8E;}
	.st101{fill:#5B524D;}
	.st102{fill:#F77819;}
	.st103{fill:#F79AE1;}
	.st104{fill:#5E707A;}
	.st105{fill:#F93585;}
	.st106{fill:#F95D5D;}
	.st107{fill:#F9C19B;}
	.st108{fill:#F9CB58;}
	.st109{fill:#F9D2B2;}
	.st110{fill:#F9F07D;}
	.st111{fill:#F9F1D2;}
	.st112{fill:#F9F4B7;}
	.st113{fill:#F9F9E4;}
	.st114{fill:#5F1DAA;}
	.st115{fill:#5F9AD6;}
	.st116{fill:#C0C0C4;}
	.st117{fill:#91EA57;}
	.st118{fill:#C12727;}
	.st119{fill:#C191A0;}
	.st120{fill:#923BB7;}
	.st121{fill:#93A0A3;}
	.st122{fill:#93F9EA;}
	.st123{fill:#93FF5A;}
	.st124{fill:#C4833D;}
	.st125{fill:#95A2A5;}
	.st126{fill:#965514;}
	.st127{fill:#96562C;}
	.st128{fill:#2AF42F;}
	.st129{fill:#C5D7DD;}
	.st130{fill:#C68510;}
	.st131{fill:#C6A86D;}
	.st132{fill:#C6BB8D;}
	.st133{fill:#2C9DCE;}
	.st134{fill:#FBFCF2;}
	.st135{fill:#FC70B0;}
	.st136{fill:#FCE6C8;}
	.st137{fill:#FCF7E3;}
	.st138{fill:#C90D6B;}
	.st139{fill:#FDFEFF;}
	.st140{fill:#FDFFDC;}
	.st141{fill:#FF1A1A;}
	.st142{fill:#FF5252;}
	.st143{fill:#FF5B00;}
	.st144{fill:#FF6155;}
	.st145{fill:#FF630D;}
	.st146{fill:#FF6666;}
	.st147{fill:#FF7676;}
	.st148{fill:#FF7900;}
	.st149{fill:#FF860D;}
	.st150{fill:#FF8B00;}
	.st151{fill:#FF8F8F;}
	.st152{fill:#FF900B;}
	.st153{fill:#FF908A;}
	.st154{fill:#FF960B;}
	.st155{fill:#FF9C0D;}
	.st156{fill:#FFA9D4;}
	.st157{fill:#FFAA00;}
	.st158{fill:#FFAD40;}
	.st159{fill:#FFAF10;}
	.st160{fill:#FFB000;}
	.st161{fill:#FFBE08;}
	.st162{fill:#FFBF31;}
	.st163{fill:#FFC200;}
	.st164{fill:#FFCAE8;}
	.st165{fill:#FFCCF5;}
	.st166{fill:#FFD00B;}
	.st167{fill:#FFD039;}
	.st168{fill:#FFD400;}
	.st169{fill:#FFD833;}
	.st170{fill:#FFDB80;}
	.st171{fill:#FFDDD2;}
	.st172{fill:#FFE6D4;}
	.st173{fill:#FFE6EB;}
	.st174{fill:#FFE98D;}
	.st175{fill:#FFECD2;}
	.st176{fill:#FFF1D9;}
	.st177{fill:#FFF24D;}
	.st178{fill:#FFF3C2;}
	.st179{fill:#FFF4C7;}
	.st180{fill:#FFF800;}
	.st181{fill:#FFF80D;}
	.st182{fill:#FFF9DE;}
	.st183{fill:#FFFBD7;}
	.st184{fill:#FFFBEB;}
	.st185{fill:#FFFCC0;}
	.st186{fill:#FFFCDC;}
	.st187{fill:#FFFFFA;}
	.st188{fill:#FFFFFF;}
	.st189{fill:#63797F;}
	.st190{fill:#65E529;}
	.st191{fill:#66310E;}
	.st192{fill:#663C17;}
	.st193{fill:#9A5AE5;}
	.st194{fill:#CA30EF;}
	.st195{fill:#6892FC;}
	.st196{fill:#9CFFC4;}
	.st197{fill:#CC4306;}
	.st198{fill:#CC549E;}
	.st199{fill:#9E3256;}
	.st200{fill:#CDFFBB;}
	.st201{fill:#CE86AF;}
	.st202{fill:#CED9DD;}
	
		.st203{fill:none;stroke:#33363A;stroke-width:3;stroke-linecap:round;stroke-linejoin:round;stroke-miterlimit:10;stroke-dasharray:6;}
	.st204{fill:#CFE1E2;}
	.st205{fill:#33363A;}
	.st206{fill:#34C166;}
	.st207{fill:#364B5B;}
	.st208{fill:#3662CE;}
	.st209{fill:#36C6FF;}
	.st210{fill:#6ADB9A;}
	.st211{fill:#6D5C4D;}
	.st212{fill:#6EBDF9;}
	.st213{fill:#0031FF;}
	.st214{fill:#0062FF;}
	.st215{fill:#0068FF;}
	.st216{fill:#0086FF;}
	.st217{fill:#009BE8;}
	.st218{fill:#00AAFF;}
	.st219{fill:#D271FF;}
	.st220{fill:#D363A9;}
	.st221{fill:#D3964C;}
	.st222{fill:#D3DFE2;}
	.st223{fill:#D3E0E2;}
	.st224{fill:#D3EFF4;}
	.st225{fill:#063B66;}
	.st226{fill:#D60909;}
	.st227{fill:#D61D1D;}
	.st228{fill:#D7F0FF;}
	.st229{fill:#09B285;}
	.st230{fill:#D8D593;}
	.st231{fill:#D8E2EA;}
	.st232{fill:#D8E5EA;}
	.st233{fill:#3E5054;}
	.st234{fill:#D988FF;}
	.st235{fill:#D9E7E8;}
	.st236{fill:#702252;}
	.st237{fill:#70D3E0;}
	.st238{fill:#A02FF2;}
	.st239{fill:#A2F255;}
	.st240{fill:#A35616;}
	.st241{fill:#A3CCCC;}
	.st242{fill:#0A6ADD;}
	.st243{fill:#A5145D;}
	.st244{fill:#A57555;}
	.st245{fill:#77D6FC;}
	.st246{fill:#7815CE;}
	.st247{fill:#A7BBC1;}
	.st248{fill:#DBD279;}
	.st249{fill:#0D5C9E;}
	.st250{fill:#A83C11;}
	.st251{fill:#A8633D;}
	.st252{fill:#A8A3E5;}
	.st253{fill:#DCE6EA;}
	.st254{fill:#DCE7EA;}
	.st255{fill:#A962E8;}
	.st256{fill:#DD2466;}
	.st257{fill:#DDC38A;}
	.st258{fill:#DDD2B1;}
	.st259{fill:#DFE7E8;}
	.st260{fill:#42B1E8;}
	.st261{fill:#436377;}
	.st262{fill:#43B530;}
]]>
</style><g><g><g><g><g><g><path class="st161" d="M86.692,69.932C82.834,76.537,75.688,80.998,67.5,80.998s-15.334-4.461-19.191-11.066H15.542        c5.142,23.963,26.481,41.986,51.958,41.986s46.815-18.023,51.957-41.986H86.692z"/></g><g><path class="st154" d="M67.5,80.998c-8.188,0-15.334-4.461-19.191-11.066H20.182C28.991,87.123,46.889,98.924,67.5,98.924        c20.61,0,38.509-11.801,47.318-28.992H86.692C82.834,76.537,75.688,80.998,67.5,80.998z"/></g><g><path class="st205" d="M67.5,113.418c-25.589,0-48.057-18.156-53.425-43.172c-0.095-0.442,0.016-0.905,0.3-1.257        c0.285-0.353,0.713-0.558,1.167-0.558h32.767c0.533,0,1.026,0.283,1.295,0.743C53.323,75.543,60.18,79.498,67.5,79.498        s14.178-3.955,17.896-10.323c0.269-0.46,0.762-0.743,1.295-0.743h32.766c0.453,0,0.882,0.205,1.167,0.558        c0.285,0.352,0.395,0.814,0.3,1.257C115.557,95.262,93.089,113.418,67.5,113.418z M17.433,71.432        c5.745,22.7,26.506,38.986,50.067,38.986c23.561,0,44.322-16.286,50.066-38.986H87.535        c-4.343,6.848-11.94,11.066-20.034,11.066S51.81,78.279,47.466,71.432H17.433z"/></g></g><g><g><path class="st161" d="M48.309,47.879c3.857-6.604,11.004-11.066,19.191-11.066s15.334,4.463,19.191,11.066h32.766        C114.316,23.918,92.977,5.893,67.5,5.893S20.684,23.918,15.542,47.879H48.309z"/></g><g><path class="st154" d="M67.5,36.812c8.188,0,15.334,4.463,19.191,11.066h28.127c-8.81-17.193-26.708-28.992-47.318-28.992        c-20.611,0-38.51,11.799-47.318,28.992h28.127C52.167,41.275,59.313,36.812,67.5,36.812z"/></g><g><path class="st205" d="M119.478,49.379c-0.007-0.001-0.013-0.001-0.02,0H86.692c-0.533,0-1.026-0.283-1.295-0.743        C81.677,42.268,74.82,38.312,67.5,38.312s-14.177,3.955-17.896,10.323c-0.269,0.46-0.762,0.743-1.295,0.743H15.542        c-0.453,0-0.882-0.205-1.167-0.558c-0.285-0.352-0.395-0.814-0.3-1.257C19.444,22.549,41.912,4.393,67.5,4.393        c25.507,0,47.913,18.042,53.372,42.935c0.068,0.171,0.105,0.356,0.105,0.552C120.978,48.707,120.306,49.379,119.478,49.379z         M87.534,46.379h30.033C111.822,23.679,91.061,7.393,67.5,7.393c-23.561,0-44.322,16.286-50.067,38.986h30.034        c4.344-6.848,11.941-11.066,20.034-11.066S83.19,39.531,87.534,46.379z"/></g></g></g><g><g><path class="st161" d="M79.083,58.904c0,6.402-5.185,11.586-11.583,11.586s-11.586-5.184-11.586-11.586       c0-6.396,5.188-11.586,11.586-11.586S79.083,52.508,79.083,58.904z"/></g><g><path class="st154" d="M55.915,58.904c0-6.396,5.188-11.586,11.586-11.586s11.583,5.189,11.583,11.586"/></g><g><path class="st205" d="M67.5,71.99c-7.216,0-13.086-5.87-13.086-13.086s5.87-13.086,13.086-13.086       c7.214,0,13.083,5.87,13.083,13.086S74.714,71.99,67.5,71.99z M67.5,48.818c-5.562,0-10.086,4.524-10.086,10.086       S61.939,68.99,67.5,68.99c5.56,0,10.083-4.524,10.083-10.086S73.06,48.818,67.5,48.818z"/></g></g></g><g><g><g><path class="st205" d="M45.404,60.404H29.036c-0.829,0-1.5-0.672-1.5-1.5s0.671-1.5,1.5-1.5h16.368c0.829,0,1.5,0.672,1.5,1.5       S46.232,60.404,45.404,60.404z"/></g><g><path class="st205" d="M19.61,60.399c-0.4,0-0.78-0.159-1.06-0.43c-0.28-0.28-0.44-0.67-0.44-1.07c0-0.39,0.16-0.779,0.43-1.06       c0.57-0.56,1.57-0.56,2.13,0.01c0.28,0.271,0.44,0.66,0.44,1.05c0,0.4-0.16,0.79-0.44,1.061       C20.39,60.24,20,60.399,19.61,60.399z"/></g><g><path class="st205" d="M11.02,60.399c-0.4,0-0.78-0.159-1.06-0.439c-0.28-0.28-0.44-0.66-0.44-1.061       c0-0.39,0.16-0.779,0.44-1.06c0.55-0.56,1.56-0.56,2.12,0.01c0.28,0.271,0.44,0.66,0.44,1.05c0,0.4-0.16,0.78-0.44,1.061       C11.8,60.24,11.41,60.399,11.02,60.399z"/></g></g><g><g><path class="st205" d="M105.964,60.404H89.597c-0.829,0-1.5-0.672-1.5-1.5s0.671-1.5,1.5-1.5h16.367c0.829,0,1.5,0.672,1.5,1.5       S106.793,60.404,105.964,60.404z"/></g><g><path class="st205" d="M115.39,60.399c-0.39,0-0.78-0.159-1.06-0.439c-0.28-0.271-0.44-0.66-0.44-1.061       c0-0.39,0.16-0.779,0.44-1.06c0.56-0.56,1.57-0.56,2.12,0.01c0.28,0.271,0.44,0.66,0.44,1.05c0,0.4-0.16,0.78-0.44,1.061       C116.17,60.24,115.79,60.399,115.39,60.399z"/></g><g><path class="st205" d="M123.98,60.399c-0.39,0-0.78-0.159-1.06-0.439c-0.28-0.28-0.44-0.66-0.44-1.061       c0-0.39,0.16-0.779,0.44-1.06c0.56-0.56,1.57-0.56,2.13,0.01c0.27,0.271,0.43,0.66,0.43,1.05c0,0.4-0.16,0.78-0.44,1.061       C124.76,60.24,124.38,60.399,123.98,60.399z"/></g></g></g></g><g><g><path class="st166" d="M87.667,104.586c-0.322-0.996-1.182-1.721-2.217-1.869l-10.701-1.557l-4.785-9.699     c-0.462-0.936-1.418-1.529-2.463-1.529c-1.047,0-2.002,0.594-2.463,1.529l-4.786,9.699l-10.701,1.557     c-1.036,0.148-1.894,0.873-2.218,1.869c-0.321,0.994-0.054,2.086,0.695,2.816l7.744,7.545l-1.829,10.658     c-0.178,1.031,0.246,2.072,1.093,2.689c0.85,0.611,1.969,0.695,2.895,0.205l9.57-5.029l9.57,5.029     c0.402,0.213,0.84,0.316,1.277,0.316c0.569,0,1.137-0.174,1.615-0.521c0.848-0.617,1.271-1.658,1.093-2.689l-1.829-10.658     l7.744-7.545C87.721,106.672,87.989,105.58,87.667,104.586z"/></g><g><path class="st161" d="M79.227,114.947l6.254-6.096c-0.011,0-0.021-0.004-0.031-0.006l-10.701-1.557l-4.785-9.697     c-0.462-0.938-1.418-1.529-2.463-1.529c-1.047,0-2.002,0.592-2.463,1.529l-4.786,9.697l-10.701,1.557     c-0.011,0.002-0.021,0.006-0.032,0.006l6.254,6.096l-0.9,5.25l0.9,0.879l-1.17,6.816c0.131,0.146,0.271,0.283,0.434,0.402     c0.85,0.611,1.969,0.695,2.895,0.205l9.57-5.029l9.57,5.029c0.402,0.213,0.84,0.316,1.277,0.316c0.569,0,1.137-0.174,1.615-0.521     c0.162-0.119,0.304-0.256,0.434-0.402l-1.17-6.816l0.9-0.879L79.227,114.947z"/></g><g><path class="st205" d="M56.652,130.317c-0.898,0-1.76-0.278-2.492-0.805c-1.325-0.966-1.971-2.559-1.695-4.162l1.695-9.88     l-7.179-6.994c-1.165-1.136-1.576-2.803-1.076-4.352c0.506-1.555,1.821-2.662,3.432-2.893l9.918-1.443l4.437-8.992     c0.708-1.437,2.203-2.365,3.808-2.365c1.604,0,3.099,0.929,3.808,2.365l4.436,8.992l9.921,1.443     c1.611,0.231,2.926,1.339,3.428,2.892c0.502,1.549,0.09,3.218-1.076,4.353l-7.179,6.994l1.696,9.881     c0.276,1.604-0.371,3.196-1.688,4.156c-1.282,0.933-3.072,1.062-4.477,0.318l-8.869-4.661l-8.873,4.663     C58.024,130.147,57.339,130.317,56.652,130.317z M67.5,91.432c-0.472,0-0.91,0.271-1.117,0.692l-4.787,9.7     c-0.219,0.442-0.641,0.749-1.129,0.82l-10.701,1.557c-0.474,0.068-0.859,0.394-1.007,0.849c-0.146,0.454-0.026,0.945,0.316,1.278     l7.744,7.545c0.354,0.345,0.515,0.841,0.432,1.328l-1.829,10.658c-0.082,0.472,0.109,0.94,0.498,1.224     c0.373,0.268,0.895,0.311,1.309,0.092l9.575-5.032c0.437-0.229,0.959-0.229,1.396,0l9.57,5.029     c0.422,0.225,0.941,0.181,1.313-0.091c0.387-0.281,0.578-0.75,0.497-1.221l-1.83-10.659c-0.083-0.487,0.078-0.983,0.432-1.328     l7.744-7.545c0.342-0.334,0.463-0.823,0.315-1.279c-0.147-0.455-0.532-0.779-1.003-0.848l-10.704-1.557     c-0.489-0.071-0.911-0.378-1.129-0.82l-4.785-9.699C68.411,91.704,67.972,91.432,67.5,91.432z"/></g></g><g><g><g><path class="st166" d="M45.969,113.736c-0.205-0.631-0.75-1.092-1.406-1.186l-6.788-0.988l-3.036-6.152      c-0.292-0.594-0.898-0.969-1.562-0.969s-1.271,0.375-1.562,0.969l-3.035,6.152l-6.788,0.988      c-0.656,0.094-1.201,0.555-1.406,1.186c-0.204,0.631-0.035,1.324,0.441,1.787l4.912,4.785l-1.161,6.76      c-0.112,0.654,0.156,1.316,0.693,1.707c0.539,0.387,1.249,0.441,1.835,0.129l6.071-3.189l6.07,3.189      c0.255,0.137,0.533,0.201,0.812,0.201c0.36,0,0.72-0.109,1.023-0.33c0.537-0.391,0.807-1.053,0.693-1.707l-1.16-6.76      l4.912-4.785C46.003,115.061,46.173,114.367,45.969,113.736z"/></g><g><path class="st161" d="M40.616,120.309l3.967-3.865c-0.007,0-0.013-0.004-0.02-0.004l-6.788-0.988l-3.036-6.152      c-0.292-0.594-0.898-0.969-1.562-0.969s-1.271,0.375-1.562,0.969l-3.035,6.152l-6.788,0.988c-0.007,0-0.014,0.004-0.02,0.004      l3.967,3.865l-0.572,3.33l0.572,0.557l-0.742,4.324c0.082,0.094,0.172,0.18,0.274,0.256c0.539,0.387,1.249,0.441,1.835,0.129      l6.071-3.189l6.07,3.189c0.255,0.137,0.533,0.201,0.812,0.201c0.36,0,0.72-0.109,1.023-0.33      c0.104-0.076,0.193-0.162,0.275-0.256l-0.742-4.324l0.571-0.557L40.616,120.309z"/></g><g><path class="st205" d="M26.296,130.606c-0.684,0-1.341-0.212-1.899-0.612c-1.014-0.737-1.508-1.953-1.297-3.18l1.028-5.982      l-4.347-4.234c-0.89-0.864-1.205-2.138-0.822-3.323c0.38-1.169,1.409-2.035,2.622-2.209l6.003-0.874l2.687-5.445      c0.539-1.096,1.681-1.805,2.908-1.805c1.227,0,2.368,0.709,2.908,1.807l2.686,5.443l6.008,0.875      c1.208,0.173,2.237,1.039,2.617,2.206c0.383,1.186,0.068,2.459-0.822,3.326l-4.347,4.233l1.027,5.982      c0.208,1.206-0.297,2.452-1.29,3.174c-0.983,0.716-2.363,0.81-3.426,0.238l-5.361-2.817l-5.374,2.823      C27.347,130.476,26.823,130.606,26.296,130.606z M33.177,105.941c-0.092,0-0.177,0.052-0.216,0.131l-3.036,6.154      c-0.218,0.442-0.641,0.749-1.129,0.82l-6.788,0.988c-0.092,0.013-0.167,0.078-0.196,0.165c-0.029,0.088-0.006,0.184,0.06,0.247      l4.914,4.787c0.354,0.345,0.515,0.841,0.432,1.328l-1.161,6.76c-0.016,0.092,0.022,0.186,0.097,0.24      c0.1,0.07,0.183,0.052,0.247,0.019l6.08-3.194c0.438-0.229,0.959-0.229,1.396,0l6.07,3.189c0.077,0.04,0.152,0.061,0.255-0.015      c0.075-0.054,0.113-0.147,0.097-0.237l-1.161-6.762c-0.083-0.487,0.078-0.983,0.432-1.328l4.912-4.785      c0.066-0.064,0.09-0.163,0.061-0.251c-0.028-0.085-0.103-0.15-0.191-0.162l-6.792-0.989c-0.488-0.071-0.91-0.378-1.129-0.82      l-3.036-6.152C33.354,105.993,33.269,105.941,33.177,105.941z"/></g></g><g><g><path class="st166" d="M114.616,113.736c-0.205-0.631-0.75-1.092-1.407-1.186l-6.788-0.988l-3.035-6.152      c-0.293-0.594-0.898-0.969-1.562-0.969c-0.663,0-1.27,0.375-1.562,0.969l-3.035,6.152l-6.787,0.988      c-0.657,0.094-1.201,0.555-1.407,1.186c-0.204,0.631-0.034,1.324,0.441,1.787l4.912,4.785l-1.161,6.76      c-0.112,0.654,0.156,1.316,0.693,1.707c0.539,0.387,1.25,0.441,1.836,0.129l6.07-3.189l6.07,3.189      c0.256,0.137,0.533,0.201,0.812,0.201c0.36,0,0.72-0.109,1.024-0.33c0.537-0.391,0.806-1.053,0.693-1.707l-1.16-6.76      l4.912-4.785C114.649,115.061,114.819,114.367,114.616,113.736z"/></g><g><path class="st161" d="M109.262,120.309l3.967-3.865c-0.008,0-0.014-0.004-0.021-0.004l-6.788-0.988l-3.035-6.152      c-0.293-0.594-0.898-0.969-1.562-0.969c-0.663,0-1.27,0.375-1.562,0.969l-3.035,6.152l-6.787,0.988      c-0.008,0-0.014,0.004-0.021,0.004l3.967,3.865l-0.571,3.33l0.571,0.557l-0.742,4.324c0.083,0.094,0.172,0.18,0.274,0.256      c0.539,0.387,1.25,0.441,1.836,0.129l6.07-3.189l6.07,3.189c0.256,0.137,0.533,0.201,0.812,0.201c0.36,0,0.72-0.109,1.024-0.33      c0.104-0.076,0.192-0.162,0.275-0.256l-0.742-4.324l0.57-0.557L109.262,120.309z"/></g><g><path class="st205" d="M94.942,130.606c-0.685,0-1.341-0.212-1.9-0.612c-1.014-0.737-1.508-1.953-1.297-3.18l1.028-5.982      l-4.347-4.234c-0.89-0.866-1.205-2.14-0.822-3.323c0.388-1.188,1.393-2.033,2.623-2.209l6.002-0.874l2.687-5.445      c0.549-1.113,1.664-1.805,2.908-1.805s2.358,0.691,2.908,1.805l2.687,5.445l6.008,0.875c1.208,0.173,2.238,1.039,2.618,2.206      c0.382,1.187,0.067,2.459-0.821,3.325l-4.348,4.234l1.027,5.982c0.21,1.227-0.284,2.442-1.29,3.174      c-0.988,0.716-2.359,0.809-3.425,0.239l-5.363-2.818l-5.373,2.823C95.994,130.476,95.469,130.606,94.942,130.606z       M101.823,105.941c-0.092,0-0.178,0.052-0.217,0.133l-3.035,6.152c-0.218,0.442-0.641,0.749-1.129,0.82l-6.787,0.988      c-0.094,0.014-0.168,0.077-0.198,0.167c-0.027,0.084-0.003,0.183,0.062,0.246l4.913,4.786c0.354,0.345,0.515,0.841,0.432,1.328      l-1.161,6.76c-0.016,0.092,0.022,0.186,0.097,0.24c0.063,0.045,0.171,0.058,0.248,0.019l6.079-3.194      c0.437-0.229,0.959-0.229,1.396,0l6.07,3.189c0.048,0.027,0.135,0.074,0.258-0.016c0.072-0.053,0.11-0.146,0.095-0.238      l-1.16-6.76c-0.083-0.487,0.078-0.983,0.432-1.328l4.912-4.785c0.065-0.063,0.089-0.163,0.061-0.253      c-0.027-0.085-0.102-0.147-0.191-0.16l-6.792-0.989c-0.488-0.071-0.911-0.378-1.129-0.82l-3.035-6.152      C102,105.992,101.917,105.941,101.823,105.941z"/></g></g></g></g></svg>