<?xml version="1.0" ?><!DOCTYPE svg  PUBLIC '-//W3C//DTD SVG 1.1//EN'  'http://www.w3.org/Graphics/SVG/1.1/DTD/svg11.dtd'><svg height="135px" id="Layer_1" style="enable-background:new 0 0 135 135;" version="1.1" viewBox="0 0 135 135" width="135px" xml:space="preserve" xmlns="http://www.w3.org/2000/svg" xmlns:xlink="http://www.w3.org/1999/xlink"><style type="text/css">
<![CDATA[
	.st0{fill:#465652;}
	.st1{fill:#AAB9BA;}
	.st2{fill:#47C67B;}
	.st3{fill:#AAC8D1;}
	.st4{fill:none;stroke:#E83834;stroke-width:6;stroke-linecap:round;stroke-linejoin:round;stroke-miterlimit:10;}
	.st5{fill:#7BC67B;}
	.st6{fill:#7BC7FF;}
	.st7{fill:#7C34C1;}
	.st8{fill:#7C8D96;}
	.st9{fill:#AD2707;}
	.st10{fill:#ADB8BC;}
	.st11{fill:#107510;}
	.st12{fill:#7FE5D8;}
	.st13{fill:#AF4AD1;}
	.st14{fill:#E02B7E;}
	.st15{fill:#E04038;}
	.st16{fill:#AFD7DD;}
	.st17{fill:#E0A010;}
	.st18{fill:#E0D5A4;}
	.st19{fill:#12B2B2;}
	.st20{fill:#12D66B;}
	.st21{fill:#E1A9FF;}
	.st22{fill:#1362A8;}
	.st23{fill:#E2378D;}
	.st24{fill:#E29C37;}
	.st25{fill:#E2B90E;}
	.st26{fill:#E2BF91;}
	.st27{fill:#E2CBAA;}
	.st28{fill:#14A594;}
	.st29{fill:#E4E9ED;}
	.st30{fill:#4A5D60;}
	.st31{fill:#E5B076;}
	.st32{fill:#E5B1C4;}
	.st33{fill:#E5E4C3;}
	.st34{fill:#4B6466;}
	.st35{fill:#E6FF2E;}
	.st36{fill:#18AA67;}
	.st37{fill:#E86207;}
	.st38{fill:#E8A113;}
	.st39{fill:#E8B5A6;}
	.st40{fill:#E8E8ED;}
	.st41{fill:#4E5154;}
	.st42{fill:#E9F1F4;}
	.st43{fill:#4F4B48;}
	.st44{fill:#4F74E8;}
	.st45{fill:#808E93;}
	.st46{fill:#80949B;}
	.st47{fill:#80EDAC;}
	.st48{fill:#B122E0;}
	.st49{fill:#B2C4CC;}
	.st50{fill:#83D839;}
	.st51{fill:#B3C6C6;}
	.st52{fill:none;stroke:#33363A;stroke-width:3;stroke-linecap:round;stroke-linejoin:round;stroke-miterlimit:10;}
	.st53{fill:#1A8E1C;}
	.st54{fill:#1A93D6;}
	.st55{fill:#B50B0B;}
	.st56{fill:#1AD88F;}
	.st57{fill:#B5DAF4;}
	.st58{fill:#EA7B1F;}
	.st59{fill:#EA81BD;}
	.st60{fill:#87B8D6;}
	.st61{fill:#87C3F4;}
	.st62{fill:#EAC79D;}
	.st63{fill:#EADF11;}
	.st64{fill:#EAE4C5;}
	.st65{fill:#B78094;}
	.st66{fill:#8844D8;}
	.st67{fill:#EBF4F7;}
	.st68{fill:#893015;}
	.st69{fill:#89410B;}
	.st70{fill:#899BA3;}
	.st71{fill:#EDE3B9;}
	.st72{enable-background:new    ;}
	.st73{fill:#50FF9F;}
	.st74{fill:#EEDCF4;}
	.st75{fill:#EFA37D;}
	.st76{fill:#EFA3CC;}
	.st77{fill:#EFC99A;}
	.st78{fill:#54AF79;}
	.st79{fill:#BA503A;}
	.st80{fill:#BA8663;}
	.st81{fill:#8B4FE0;}
	.st82{fill:#58ED9B;}
	.st83{fill:#BC7DFF;}
	.st84{fill:#8D9AA3;}
	.st85{fill:#BCCAD3;}
	.st86{fill:#8DE4FF;}
	.st87{fill:#20B518;}
	.st88{fill:#BF44F2;}
	.st89{fill:#21CEA1;}
	.st90{fill:#BFDAE0;}
	.st91{fill:#F0FBFC;}
	.st92{fill:#F2D9A7;}
	.st93{fill:#F2EAC9;}
	.st94{fill:#24D1AF;}
	.st95{fill:#25931C;}
	.st96{fill:#F4C4B3;}
	.st97{fill:#F4D3A2;}
	.st98{fill:#F4D647;}
	.st99{fill:#F4D7B8;}
	.st100{fill:#F4EC8E;}
	.st101{fill:#5B524D;}
	.st102{fill:#F77819;}
	.st103{fill:#F79AE1;}
	.st104{fill:#5E707A;}
	.st105{fill:#F93585;}
	.st106{fill:#F95D5D;}
	.st107{fill:#F9C19B;}
	.st108{fill:#F9CB58;}
	.st109{fill:#F9D2B2;}
	.st110{fill:#F9F07D;}
	.st111{fill:#F9F1D2;}
	.st112{fill:#F9F4B7;}
	.st113{fill:#F9F9E4;}
	.st114{fill:#5F1DAA;}
	.st115{fill:#5F9AD6;}
	.st116{fill:#C0C0C4;}
	.st117{fill:#91EA57;}
	.st118{fill:#C12727;}
	.st119{fill:#C191A0;}
	.st120{fill:#923BB7;}
	.st121{fill:#93A0A3;}
	.st122{fill:#93F9EA;}
	.st123{fill:#93FF5A;}
	.st124{fill:#C4833D;}
	.st125{fill:#95A2A5;}
	.st126{fill:#965514;}
	.st127{fill:#96562C;}
	.st128{fill:#2AF42F;}
	.st129{fill:#C5D7DD;}
	.st130{fill:#C68510;}
	.st131{fill:#C6A86D;}
	.st132{fill:#C6BB8D;}
	.st133{fill:#2C9DCE;}
	.st134{fill:#FBFCF2;}
	.st135{fill:#FC70B0;}
	.st136{fill:#FCE6C8;}
	.st137{fill:#FCF7E3;}
	.st138{fill:#C90D6B;}
	.st139{fill:#FDFEFF;}
	.st140{fill:#FDFFDC;}
	.st141{fill:#FF1A1A;}
	.st142{fill:#FF5252;}
	.st143{fill:#FF5B00;}
	.st144{fill:#FF6155;}
	.st145{fill:#FF630D;}
	.st146{fill:#FF6666;}
	.st147{fill:#FF7676;}
	.st148{fill:#FF7900;}
	.st149{fill:#FF860D;}
	.st150{fill:#FF8B00;}
	.st151{fill:#FF8F8F;}
	.st152{fill:#FF900B;}
	.st153{fill:#FF908A;}
	.st154{fill:#FF960B;}
	.st155{fill:#FF9C0D;}
	.st156{fill:#FFA9D4;}
	.st157{fill:#FFAA00;}
	.st158{fill:#FFAD40;}
	.st159{fill:#FFAF10;}
	.st160{fill:#FFB000;}
	.st161{fill:#FFBE08;}
	.st162{fill:#FFBF31;}
	.st163{fill:#FFC200;}
	.st164{fill:#FFCAE8;}
	.st165{fill:#FFCCF5;}
	.st166{fill:#FFD00B;}
	.st167{fill:#FFD039;}
	.st168{fill:#FFD400;}
	.st169{fill:#FFD833;}
	.st170{fill:#FFDB80;}
	.st171{fill:#FFDDD2;}
	.st172{fill:#FFE6D4;}
	.st173{fill:#FFE6EB;}
	.st174{fill:#FFE98D;}
	.st175{fill:#FFECD2;}
	.st176{fill:#FFF1D9;}
	.st177{fill:#FFF24D;}
	.st178{fill:#FFF3C2;}
	.st179{fill:#FFF4C7;}
	.st180{fill:#FFF800;}
	.st181{fill:#FFF80D;}
	.st182{fill:#FFF9DE;}
	.st183{fill:#FFFBD7;}
	.st184{fill:#FFFBEB;}
	.st185{fill:#FFFCC0;}
	.st186{fill:#FFFCDC;}
	.st187{fill:#FFFFFA;}
	.st188{fill:#FFFFFF;}
	.st189{fill:#63797F;}
	.st190{fill:#65E529;}
	.st191{fill:#66310E;}
	.st192{fill:#663C17;}
	.st193{fill:#9A5AE5;}
	.st194{fill:#CA30EF;}
	.st195{fill:#6892FC;}
	.st196{fill:#9CFFC4;}
	.st197{fill:#CC4306;}
	.st198{fill:#CC549E;}
	.st199{fill:#9E3256;}
	.st200{fill:#CDFFBB;}
	.st201{fill:#CE86AF;}
	.st202{fill:#CED9DD;}
	
		.st203{fill:none;stroke:#33363A;stroke-width:3;stroke-linecap:round;stroke-linejoin:round;stroke-miterlimit:10;stroke-dasharray:6;}
	.st204{fill:#CFE1E2;}
	.st205{fill:#33363A;}
	.st206{fill:#34C166;}
	.st207{fill:#364B5B;}
	.st208{fill:#3662CE;}
	.st209{fill:#36C6FF;}
	.st210{fill:#6ADB9A;}
	.st211{fill:#6D5C4D;}
	.st212{fill:#6EBDF9;}
	.st213{fill:#0031FF;}
	.st214{fill:#0062FF;}
	.st215{fill:#0068FF;}
	.st216{fill:#0086FF;}
	.st217{fill:#009BE8;}
	.st218{fill:#00AAFF;}
	.st219{fill:#D271FF;}
	.st220{fill:#D363A9;}
	.st221{fill:#D3964C;}
	.st222{fill:#D3DFE2;}
	.st223{fill:#D3E0E2;}
	.st224{fill:#D3EFF4;}
	.st225{fill:#063B66;}
	.st226{fill:#D60909;}
	.st227{fill:#D61D1D;}
	.st228{fill:#D7F0FF;}
	.st229{fill:#09B285;}
	.st230{fill:#D8D593;}
	.st231{fill:#D8E2EA;}
	.st232{fill:#D8E5EA;}
	.st233{fill:#3E5054;}
	.st234{fill:#D988FF;}
	.st235{fill:#D9E7E8;}
	.st236{fill:#702252;}
	.st237{fill:#70D3E0;}
	.st238{fill:#A02FF2;}
	.st239{fill:#A2F255;}
	.st240{fill:#A35616;}
	.st241{fill:#A3CCCC;}
	.st242{fill:#0A6ADD;}
	.st243{fill:#A5145D;}
	.st244{fill:#A57555;}
	.st245{fill:#77D6FC;}
	.st246{fill:#7815CE;}
	.st247{fill:#A7BBC1;}
	.st248{fill:#DBD279;}
	.st249{fill:#0D5C9E;}
	.st250{fill:#A83C11;}
	.st251{fill:#A8633D;}
	.st252{fill:#A8A3E5;}
	.st253{fill:#DCE6EA;}
	.st254{fill:#DCE7EA;}
	.st255{fill:#A962E8;}
	.st256{fill:#DD2466;}
	.st257{fill:#DDC38A;}
	.st258{fill:#DDD2B1;}
	.st259{fill:#DFE7E8;}
	.st260{fill:#42B1E8;}
	.st261{fill:#436377;}
	.st262{fill:#43B530;}
]]>
</style><g><g><g><g><polygon class="st86" points="39.748,21.096 67.5,5.074 95.252,21.096 95.252,53.146 67.5,69.166 39.748,53.146     "/></g><g><polyline class="st209" points="39.748,21.096 67.5,5.074 95.252,21.096 95.252,53.146 67.5,69.166     "/></g><g><polygon class="st216" points="67.5,5.074 67.5,69.166 67.5,69.166 95.252,53.146 95.252,21.096 67.5,5.074     "/></g><g><polyline class="st214" points="95.252,21.096 67.5,5.074 67.5,5.074 67.5,69.166 67.5,69.166     "/></g><g><g><g><polygon class="st209" points="39.748,21.096 39.748,21.098 67.5,37.12 95.252,21.098 95.252,21.096 67.5,5.074       "/></g><g><polyline class="st218" points="39.748,21.096 39.748,21.098 67.5,37.12 95.252,21.098 95.252,21.096       "/></g><g><path class="st205" d="M67.5,70.666c-0.259,0-0.518-0.067-0.75-0.201L38.998,54.445c-0.464-0.268-0.75-0.763-0.75-1.299        v-32.05c0-0.536,0.286-1.031,0.75-1.299L66.75,3.775c0.464-0.269,1.036-0.269,1.5,0l27.752,16.021        c0.464,0.268,0.75,0.763,0.75,1.299v32.05c0,0.536-0.286,1.031-0.75,1.299L68.25,70.465        C68.018,70.599,67.759,70.666,67.5,70.666z M41.248,52.279L67.5,67.434l26.252-15.155V21.962L67.5,6.806L41.248,21.962V52.279        z"/></g><g><g><path class="st205" d="M67.5,38.62c-0.259,0-0.518-0.067-0.75-0.201L38.998,22.396c-0.717-0.414-0.963-1.332-0.549-2.049         c0.415-0.717,1.331-0.964,2.049-0.549L67.5,35.388l27.002-15.589c0.719-0.415,1.635-0.168,2.049,0.549         c0.415,0.717,0.168,1.635-0.549,2.049L68.25,38.419C68.018,38.553,67.759,38.62,67.5,38.62z"/></g><g><path class="st205" d="M67.5,69.802c-0.829,0-1.5-0.671-1.5-1.5V37.12c0-0.829,0.671-1.5,1.5-1.5s1.5,0.671,1.5,1.5v31.182         C69,69.13,68.329,69.802,67.5,69.802z"/></g></g></g></g></g></g><g><polygon class="st214" points="48.651,94.427 48.651,94.429 67.5,105.311 86.349,94.429 86.349,94.427 67.5,83.546   "/></g><g><polyline class="st213" points="67.5,105.311 86.349,94.429 86.349,94.427 67.5,83.546   "/></g><g><path class="st205" d="M67.5,106.811c-0.259,0-0.518-0.067-0.75-0.201L47.901,95.728c-0.464-0.268-0.75-0.763-0.75-1.299    c0-0.536,0.286-1.031,0.75-1.299L66.75,82.247c0.464-0.269,1.036-0.268,1.5,0l18.849,10.881c0.464,0.268,0.75,0.763,0.75,1.299    c0,0.536-0.286,1.031-0.75,1.299L68.25,106.609C68.018,106.744,67.759,106.811,67.5,106.811z M51.651,94.427l15.849,9.152    l15.849-9.15L67.5,85.278L51.651,94.427z"/></g><g><g><circle class="st209" cx="67.5" cy="124.767" r="5.16"/></g><g><path class="st216" d="M67.5,119.606c2.85,0,5.16,2.311,5.16,5.16c0,2.851-2.31,5.159-5.16,5.159"/></g><g><path class="st205" d="M67.5,131.426c-3.672,0-6.66-2.987-6.66-6.659c0-3.672,2.987-6.66,6.66-6.66s6.66,2.988,6.66,6.66     C74.16,128.438,71.172,131.426,67.5,131.426z M67.5,121.106c-2.018,0-3.66,1.642-3.66,3.66c0,2.018,1.642,3.659,3.66,3.659     s3.66-1.642,3.66-3.659C71.16,122.749,69.518,121.106,67.5,121.106z"/></g></g><g><g><path class="st205" d="M67.5,112.691c-0.829,0-1.5-0.671-1.5-1.5v-5.881c0-0.829,0.671-1.5,1.5-1.5s1.5,0.671,1.5,1.5v5.881     C69,112.02,68.329,112.691,67.5,112.691z"/></g><g><path class="st205" d="M67.5,116.98c-0.39,0-0.78-0.16-1.06-0.44c-0.28-0.28-0.44-0.67-0.44-1.06c0-0.4,0.16-0.78,0.44-1.06     c0.56-0.57,1.57-0.56,2.12,0c0.28,0.27,0.44,0.66,0.44,1.06c0,0.39-0.16,0.78-0.44,1.06C68.28,116.82,67.9,116.98,67.5,116.98z"/></g></g><g><g><path class="st205" d="M67.5,75.683c-0.829,0-1.5-0.671-1.5-1.5v-5.881c0-0.829,0.671-1.5,1.5-1.5s1.5,0.671,1.5,1.5v5.881     C69,75.011,68.329,75.683,67.5,75.683z"/></g><g><path class="st205" d="M67.5,79.97c-0.4,0-0.78-0.16-1.06-0.44C66.16,79.25,66,78.86,66,78.47c0-0.4,0.16-0.78,0.44-1.06     c0.56-0.56,1.57-0.56,2.12,0c0.28,0.28,0.44,0.66,0.44,1.06c0,0.39-0.16,0.78-0.44,1.06C68.28,79.81,67.9,79.97,67.5,79.97z"/></g></g></g></svg>